<svg width="16" height="16" viewBox="0 0 16 16" xmlns="http://www.w3.org/2000/svg">
  <title>
    pencil-icon
  </title>
  <path d="M15.015 5.356l-8.658 8.656c-.495.454-1.088.79-1.732.98l-2.64.66-1.185.3c-.215.094-.466.048-.633-.12-.166-.165-.213-.416-.12-.632l.3-1.183.66-2.64c.19-.646.525-1.24.98-1.734L10.645.987c.77-.83 1.93-1.17 3.027-.89 1.096.278 1.952 1.134 2.232 2.23.28 1.096-.06 2.258-.89 3.03zM3.39 11.046c-.2.24-.354.514-.457.81l-.403 1.613 1.613-.405c.294-.103.568-.258.808-.457l6.824-6.822-.035-.035-1.493-1.49-.036-.037-6.82 6.824zm10.22-8.655c-.432-.43-1.13-.43-1.562 0l-.43.432.035.035 1.492 1.492.035.034.43-.43c.432-.433.43-1.133 0-1.565z" fill="#e3e3e3" fill-rule="evenodd"/>
</svg>
