<svg width="126" height="28" viewBox="0 0 126 28" fill="none" xmlns="http://www.w3.org/2000/svg">
<g clip-path="url(#clip0_205_22153)">
<path d="M0.584 20V4.248H6.282C7.514 4.248 8.57733 4.65867 9.472 5.48C10.3813 6.28667 10.836 7.306 10.836 8.538C10.836 9.286 10.638 9.946 10.242 10.518C9.86067 11.09 9.34733 11.5227 8.702 11.816V11.904C9.47933 12.168 10.1173 12.6227 10.616 13.268C11.1147 13.9133 11.364 14.6613 11.364 15.512C11.364 16.8027 10.8873 17.8733 9.934 18.724C8.99533 19.5747 7.88067 20 6.59 20H0.584ZM2.608 11.002H6.282C7.04467 11.002 7.65333 10.7527 8.108 10.254C8.57733 9.74067 8.812 9.18333 8.812 8.582C8.812 7.98067 8.58467 7.43067 8.13 6.932C7.69 6.43333 7.10333 6.184 6.37 6.184H2.608V11.002ZM2.608 18.064H6.678C7.45533 18.064 8.086 17.7927 8.57 17.25C9.054 16.7073 9.296 16.1133 9.296 15.468C9.296 14.8227 9.04667 14.236 8.548 13.708C8.04933 13.1653 7.39667 12.894 6.59 12.894H2.608V18.064ZM16.7045 20.352C15.5605 20.352 14.5998 20.022 13.8225 19.362C13.0598 18.702 12.6785 17.8293 12.6785 16.744C12.6785 15.5707 13.1332 14.654 14.0425 13.994C14.9518 13.3193 16.0738 12.982 17.4085 12.982C18.5965 12.982 19.5718 13.202 20.3345 13.642V13.334C20.3345 12.542 20.0632 11.9113 19.5205 11.442C18.9778 10.958 18.3105 10.716 17.5185 10.716C16.9318 10.716 16.3965 10.8553 15.9125 11.134C15.4432 11.4127 15.1205 11.794 14.9445 12.278L13.0965 11.486C13.3458 10.8407 13.8372 10.2467 14.5705 9.704C15.3038 9.14667 16.2718 8.868 17.4745 8.868C18.8532 8.868 19.9972 9.27133 20.9065 10.078C21.8158 10.8847 22.2705 12.0213 22.2705 13.488V20H20.3345V18.504H20.2465C19.4398 19.736 18.2592 20.352 16.7045 20.352ZM17.0345 18.504C17.8705 18.504 18.6258 18.196 19.3005 17.58C19.9898 16.9493 20.3345 16.2087 20.3345 15.358C19.7625 14.8887 18.9045 14.654 17.7605 14.654C16.7778 14.654 16.0372 14.8667 15.5385 15.292C15.0398 15.7173 14.7905 16.216 14.7905 16.788C14.7905 17.316 15.0178 17.734 15.4725 18.042C15.9272 18.35 16.4478 18.504 17.0345 18.504ZM26.5763 20H24.5523V9.22H26.4883V10.98H26.5763C26.7816 10.3933 27.1996 9.90933 27.8303 9.528C28.4756 9.14667 29.099 8.956 29.7003 8.956C30.3016 8.956 30.8076 9.044 31.2183 9.22L30.4483 11.112C30.1843 11.0093 29.825 10.958 29.3703 10.958C28.637 10.958 27.9843 11.2513 27.4123 11.838C26.855 12.41 26.5763 13.1653 26.5763 14.104V20ZM36.3885 20.352C34.9952 20.352 33.7925 19.802 32.7805 18.702C31.7685 17.602 31.2625 16.238 31.2625 14.61C31.2625 12.982 31.7685 11.618 32.7805 10.518C33.7925 9.418 34.9952 8.868 36.3885 8.868C37.2098 8.868 37.9432 9.044 38.5885 9.396C39.2485 9.748 39.7398 10.188 40.0625 10.716H40.1505L40.0625 9.22V4.248H42.0865V20H40.1505V18.504H40.0625C39.7398 19.032 39.2485 19.472 38.5885 19.824C37.9432 20.176 37.2098 20.352 36.3885 20.352ZM36.7185 18.504C37.6718 18.504 38.4785 18.152 39.1385 17.448C39.8132 16.744 40.1505 15.798 40.1505 14.61C40.1505 13.422 39.8132 12.476 39.1385 11.772C38.4785 11.068 37.6718 10.716 36.7185 10.716C35.7798 10.716 34.9732 11.0753 34.2985 11.794C33.6238 12.498 33.2865 13.4367 33.2865 14.61C33.2865 15.7833 33.6238 16.7293 34.2985 17.448C34.9732 18.152 35.7798 18.504 36.7185 18.504Z" fill="#E8EAED"/>
<path d="M55.3074 16.5V7.908H60.8154V9.156H56.6154V11.424H60.4434V12.672H56.6154V15.252H60.8154V16.5H55.3074ZM61.4227 16.5L63.6307 13.392L61.4347 10.38H62.9347L64.3867 12.408H64.4227L65.8147 10.38H67.3627L65.1307 13.392L67.3627 16.5H65.8747L64.3987 14.4H64.3747L62.8987 16.5H61.4227ZM68.3181 19.092V10.38H69.5181V11.172H69.5901C69.7501 10.908 69.9901 10.68 70.3101 10.488C70.6381 10.288 71.0261 10.188 71.4741 10.188C72.0021 10.188 72.4701 10.32 72.8781 10.584C73.2941 10.84 73.6181 11.212 73.8501 11.7C74.0821 12.18 74.1981 12.76 74.1981 13.44C74.1981 14.112 74.0821 14.692 73.8501 15.18C73.6181 15.668 73.2941 16.044 72.8781 16.308C72.4701 16.564 72.0021 16.692 71.4741 16.692C71.0101 16.692 70.6181 16.596 70.2981 16.404C69.9781 16.212 69.7421 15.988 69.5901 15.732H69.5181L69.5901 16.608V19.092H68.3181ZM71.2221 15.504C71.7101 15.504 72.1141 15.332 72.4341 14.988C72.7621 14.636 72.9261 14.12 72.9261 13.44C72.9261 12.76 72.7621 12.248 72.4341 11.904C72.1141 11.552 71.7101 11.376 71.2221 11.376C70.7341 11.376 70.3261 11.552 69.9981 11.904C69.6781 12.248 69.5181 12.76 69.5181 13.44C69.5181 14.12 69.6781 14.636 69.9981 14.988C70.3261 15.332 70.7341 15.504 71.2221 15.504ZM78.0934 16.692C77.4774 16.692 76.9454 16.556 76.4974 16.284C76.0574 16.012 75.7134 15.632 75.4654 15.144C75.2254 14.656 75.1054 14.092 75.1054 13.452C75.1054 12.804 75.2294 12.236 75.4774 11.748C75.7334 11.252 76.0854 10.868 76.5334 10.596C76.9894 10.324 77.5094 10.188 78.0934 10.188C79.0134 10.188 79.7134 10.452 80.1934 10.98C80.6734 11.5 80.9134 12.208 80.9134 13.104C80.9134 13.32 80.9014 13.524 80.8774 13.716H76.3534C76.3934 14.308 76.5734 14.76 76.8934 15.072C77.2214 15.384 77.6374 15.54 78.1414 15.54C78.5494 15.54 78.8734 15.448 79.1134 15.264C79.3534 15.072 79.5254 14.836 79.6294 14.556L80.7454 14.856C80.5774 15.408 80.2694 15.852 79.8214 16.188C79.3814 16.524 78.8054 16.692 78.0934 16.692ZM78.0934 11.268C77.6694 11.268 77.3094 11.392 77.0134 11.64C76.7174 11.888 76.5174 12.26 76.4134 12.756H79.6534C79.6294 12.308 79.4854 11.948 79.2214 11.676C78.9574 11.404 78.5814 11.268 78.0934 11.268ZM82.3007 16.5V10.38H83.5127V11.412H83.5847C83.7607 11.028 84.0167 10.728 84.3527 10.512C84.6967 10.296 85.1047 10.188 85.5767 10.188C85.8087 10.188 86.0247 10.208 86.2247 10.248C86.4327 10.28 86.6007 10.336 86.7287 10.416V11.76C86.5367 11.656 86.3207 11.572 86.0807 11.508C85.8487 11.444 85.5927 11.412 85.3127 11.412C84.7687 11.412 84.3447 11.6 84.0407 11.976C83.7367 12.344 83.5847 12.808 83.5847 13.368V16.5H82.3007ZM89.88 9.228C89.6 9.228 89.364 9.132 89.172 8.94C88.98 8.748 88.884 8.512 88.884 8.232C88.884 7.96 88.98 7.728 89.172 7.536C89.364 7.344 89.6 7.248 89.88 7.248C90.16 7.248 90.396 7.344 90.588 7.536C90.78 7.728 90.876 7.96 90.876 8.232C90.876 8.512 90.78 8.748 90.588 8.94C90.396 9.132 90.16 9.228 89.88 9.228ZM87.132 16.5V15.336H89.232V11.544H87.492V10.38H90.516V15.336H92.628V16.5H87.132ZM93.3673 16.5V10.38H94.5193V10.908H94.5913C94.6873 10.692 94.8393 10.52 95.0473 10.392C95.2633 10.256 95.5073 10.188 95.7793 10.188C96.1073 10.188 96.3553 10.26 96.5233 10.404C96.6993 10.54 96.8273 10.704 96.9073 10.896C97.0033 10.712 97.1673 10.548 97.3993 10.404C97.6313 10.26 97.9073 10.188 98.2273 10.188C98.6913 10.188 99.0513 10.336 99.3073 10.632C99.5713 10.92 99.7033 11.352 99.7033 11.928V16.5H98.4913V12.024C98.4913 11.808 98.4353 11.636 98.3233 11.508C98.2193 11.38 98.0713 11.316 97.8793 11.316C97.6473 11.316 97.4673 11.396 97.3393 11.556C97.2193 11.708 97.1593 11.912 97.1593 12.168V16.5H95.9353V12.036C95.9353 11.82 95.8833 11.648 95.7793 11.52C95.6833 11.384 95.5273 11.316 95.3113 11.316C95.1033 11.316 94.9313 11.396 94.7953 11.556C94.6593 11.716 94.5913 11.924 94.5913 12.18V16.5H93.3673ZM103.815 16.692C103.199 16.692 102.667 16.556 102.219 16.284C101.779 16.012 101.435 15.632 101.187 15.144C100.947 14.656 100.827 14.092 100.827 13.452C100.827 12.804 100.951 12.236 101.199 11.748C101.455 11.252 101.807 10.868 102.255 10.596C102.711 10.324 103.231 10.188 103.815 10.188C104.735 10.188 105.435 10.452 105.915 10.98C106.395 11.5 106.635 12.208 106.635 13.104C106.635 13.32 106.623 13.524 106.599 13.716H102.075C102.115 14.308 102.295 14.76 102.615 15.072C102.943 15.384 103.359 15.54 103.863 15.54C104.271 15.54 104.595 15.448 104.835 15.264C105.075 15.072 105.247 14.836 105.351 14.556L106.467 14.856C106.299 15.408 105.991 15.852 105.543 16.188C105.103 16.524 104.527 16.692 103.815 16.692ZM103.815 11.268C103.391 11.268 103.031 11.392 102.735 11.64C102.439 11.888 102.239 12.26 102.135 12.756H105.375C105.351 12.308 105.207 11.948 104.943 11.676C104.679 11.404 104.303 11.268 103.815 11.268ZM107.926 16.5V10.38H109.138V11.148H109.21C109.37 10.86 109.614 10.628 109.942 10.452C110.278 10.276 110.646 10.188 111.046 10.188C111.734 10.188 112.266 10.396 112.642 10.812C113.018 11.228 113.206 11.8 113.206 12.528V16.5H111.934V12.696C111.934 12.248 111.818 11.916 111.586 11.7C111.354 11.484 111.054 11.376 110.686 11.376C110.238 11.376 109.878 11.54 109.606 11.868C109.342 12.196 109.21 12.588 109.21 13.044V16.5H107.926ZM117.185 16.68C116.553 16.68 116.045 16.496 115.661 16.128C115.277 15.752 115.085 15.216 115.085 14.52V11.496H113.681V10.38H115.085V8.7H116.369V10.38H118.613V11.496H116.369V14.4C116.369 14.744 116.457 15.012 116.633 15.204C116.809 15.388 117.073 15.48 117.425 15.48C117.729 15.48 118.025 15.4 118.313 15.24L118.685 16.32C118.477 16.44 118.261 16.528 118.037 16.584C117.821 16.648 117.537 16.68 117.185 16.68Z" fill="#A8C7FA"/>
<rect x="48.5" y="2.5" width="77" height="19" rx="5.5" stroke="#A8C7FA"/>
</g>
<defs>
<clipPath id="clip0_205_22153">
<rect width="126" height="28" fill="white"/>
</clipPath>
</defs>
</svg>
